<?xml version="1.0" encoding="UTF-8" standalone="no"?>
<!-- Created with Inkscape (http://www.inkscape.org/) -->

<svg
   xmlns:dc="http://purl.org/dc/elements/1.1/"
   xmlns:cc="http://creativecommons.org/ns#"
   xmlns:rdf="http://www.w3.org/1999/02/22-rdf-syntax-ns#"
   xmlns:svg="http://www.w3.org/2000/svg"
   xmlns="http://www.w3.org/2000/svg"
   xmlns:sodipodi="http://sodipodi.sourceforge.net/DTD/sodipodi-0.dtd"
   xmlns:inkscape="http://www.inkscape.org/namespaces/inkscape"
   id="svg2"
   version="1.1"
   inkscape:version="0.91 r"
   width="100"
   height="79"
   sodipodi:docname="snippet_work.svg"
   inkscape:export-filename="/home/jcamacho/workspace/odoo/addons/themes/theme_stanley/static/src/img/snippets/snippet_work.png"
   inkscape:export-xdpi="90"
   inkscape:export-ydpi="90">
  <metadata
     id="metadata8">
    <rdf:RDF>
      <cc:Work
         rdf:about="">
        <dc:format>image/svg+xml</dc:format>
        <dc:type
           rdf:resource="http://purl.org/dc/dcmitype/StillImage" />
        <dc:title></dc:title>
      </cc:Work>
    </rdf:RDF>
  </metadata>
  <defs
     id="defs6">
    <clipPath
       clipPathUnits="userSpaceOnUse"
       id="clipPath4155">
      <rect
         y="478"
         x="-132"
         height="128"
         width="444"
         id="rect4157"
         style="opacity:0.75;fill:#ff0000;fill-opacity:1;stroke:none;stroke-width:20;stroke-linecap:butt;stroke-linejoin:miter;stroke-miterlimit:4;stroke-dasharray:none;stroke-opacity:1" />
    </clipPath>
  </defs>
  <sodipodi:namedview
     pagecolor="#ffffff"
     bordercolor="#666666"
     borderopacity="1"
     objecttolerance="10"
     gridtolerance="10"
     guidetolerance="10"
     inkscape:pageopacity="0"
     inkscape:pageshadow="2"
     inkscape:window-width="1920"
     inkscape:window-height="1056"
     id="namedview4"
     showgrid="false"
     inkscape:zoom="4"
     inkscape:cx="42.870775"
     inkscape:cy="8.175123"
     inkscape:window-x="1366"
     inkscape:window-y="24"
     inkscape:window-maximized="1"
     inkscape:current-layer="svg2" />
  <rect
     style="opacity:1;fill:#ffffff;fill-opacity:1;stroke:none;stroke-width:20;stroke-linecap:butt;stroke-linejoin:miter;stroke-miterlimit:4;stroke-dasharray:none;stroke-opacity:1"
     id="rect4187"
     width="100"
     height="79"
     x="0"
     y="0" />
  <g
     id="g4166"
     transform="matrix(0.8125,0,0,0.8125,6,30.199187)"
     style="fill:#1abc9c;fill-opacity:1">
    <g
       id="icomoon-ignore-0"
       style="fill:#1abc9c;fill-opacity:1">
      <line
         id="line4156"
         opacity=""
         y2="0"
         x2="0"
         y1="0"
         x1="0"
         style="fill:#1abc9c;fill-opacity:1;stroke:#449fdb;stroke-width:1" />
    </g>
    <path
       id="path4158"
       d="M 0,24.427 0,-2.56 q 0,-0.48 0.347,-0.827 0.347,-0.347 0.827,-0.347 l 29.653,0 q 0.507,0 0.84,0.347 Q 32,-3.04 32,-2.56 l 0,26.987 q 0,0.48 -0.333,0.827 -0.333,0.347 -0.84,0.347 l -29.653,0 q -0.48,0 -0.827,-0.347 Q 0,24.907 0,24.427 Z m 2.667,-5.84 6.587,-4.853 7.947,3.493 -1.973,-4.16 7.813,-8.48 6.293,7.68 0,-13.333 -26.667,0 0,19.653 z M 5.547,5.6 q 0,-1.493 1.04,-2.533 1.04,-1.04 2.533,-1.04 1.493,0 2.533,1.04 1.04,1.04 1.04,2.533 0,1.493 -1.04,2.533 -1.04,1.04 -2.533,1.04 -1.493,0 -2.533,-1.04 Q 5.547,7.093 5.547,5.6 Z"
       inkscape:connector-curvature="0"
       style="fill:#1abc9c;fill-opacity:1" />
  </g>
  <g
     style="fill:#1abc9c;fill-opacity:1"
     transform="matrix(0.8125,0,0,0.8125,37,30.199187)"
     id="g4171">
    <g
       style="fill:#1abc9c;fill-opacity:1"
       id="g4173">
      <line
         style="fill:#1abc9c;fill-opacity:1;stroke:#449fdb;stroke-width:1"
         x1="0"
         y1="0"
         x2="0"
         y2="0"
         opacity=""
         id="line4175" />
    </g>
    <path
       style="fill:#1abc9c;fill-opacity:1"
       inkscape:connector-curvature="0"
       d="M 0,24.427 0,-2.56 q 0,-0.48 0.347,-0.827 0.347,-0.347 0.827,-0.347 l 29.653,0 q 0.507,0 0.84,0.347 Q 32,-3.04 32,-2.56 l 0,26.987 q 0,0.48 -0.333,0.827 -0.333,0.347 -0.84,0.347 l -29.653,0 q -0.48,0 -0.827,-0.347 Q 0,24.907 0,24.427 Z m 2.667,-5.84 6.587,-4.853 7.947,3.493 -1.973,-4.16 7.813,-8.48 6.293,7.68 0,-13.333 -26.667,0 0,19.653 z M 5.547,5.6 q 0,-1.493 1.04,-2.533 1.04,-1.04 2.533,-1.04 1.493,0 2.533,1.04 1.04,1.04 1.04,2.533 0,1.493 -1.04,2.533 -1.04,1.04 -2.533,1.04 -1.493,0 -2.533,-1.04 Q 5.547,7.093 5.547,5.6 Z"
       id="path4177" />
  </g>
  <g
     id="g4179"
     transform="matrix(0.8125,0,0,0.8125,68,30.199187)"
     style="fill:#1abc9c;fill-opacity:1">
    <g
       id="g4181"
       style="fill:#1abc9c;fill-opacity:1">
      <line
         id="line4183"
         opacity=""
         y2="0"
         x2="0"
         y1="0"
         x1="0"
         style="fill:#1abc9c;fill-opacity:1;stroke:#449fdb;stroke-width:1" />
    </g>
    <path
       id="path4185"
       d="M 0,24.427 0,-2.56 q 0,-0.48 0.347,-0.827 0.347,-0.347 0.827,-0.347 l 29.653,0 q 0.507,0 0.84,0.347 Q 32,-3.04 32,-2.56 l 0,26.987 q 0,0.48 -0.333,0.827 -0.333,0.347 -0.84,0.347 l -29.653,0 q -0.48,0 -0.827,-0.347 Q 0,24.907 0,24.427 Z m 2.667,-5.84 6.587,-4.853 7.947,3.493 -1.973,-4.16 7.813,-8.48 6.293,7.68 0,-13.333 -26.667,0 0,19.653 z M 5.547,5.6 q 0,-1.493 1.04,-2.533 1.04,-1.04 2.533,-1.04 1.493,0 2.533,1.04 1.04,1.04 1.04,2.533 0,1.493 -1.04,2.533 -1.04,1.04 -2.533,1.04 -1.493,0 -2.533,-1.04 Q 5.547,7.093 5.547,5.6 Z"
       inkscape:connector-curvature="0"
       style="fill:#1abc9c;fill-opacity:1" />
  </g>
</svg>
